<?xml version="1.0" encoding="UTF-8" standalone="no"?>
<!-- Created with Inkscape (http://www.inkscape.org/) -->

<svg
   version="1.1"
   id="svg1"
   width="70.985336"
   height="19.308001"
   viewBox="0 0 70.985336 19.308001"
   xmlns="http://www.w3.org/2000/svg"
   xmlns:svg="http://www.w3.org/2000/svg">
  <defs
     id="defs1" />
  <g
     id="g1">
    <path
       id="path1"
       d="M 0,0 H 53.239 V 14.481 H 0 Z"
       style="fill:#ffffff;fill-opacity:1;fill-rule:nonzero;stroke:none"
       transform="matrix(1.3333333,0,0,-1.3333333,0,19.308)" />
    <path
       id="path2"
       d="m 2.9310625,-6.3751172 c 0,-0.234375 0,-0.2578125 -0.234375,-0.2578125 C 2.0873125,-6.0001172 1.2084063,-6.0001172 0.892,-6.0001172 v 0.3164063 c 0.1992188,0 0.7851563,0 1.3007813,-0.2578125 v 5.15624996 c 0,0.3515625 -0.035156,0.48046875 -0.9257813,0.48046875 H 0.95059375 V -1.171875e-4 C 1.3021563,-0.03527344 2.157625,-0.03527344 2.5560625,-0.03527344 c 0.3984375,0 1.265625,0 1.6171875,0.0351562525 V -0.30480469 H 3.8568438 c -0.9023438,0 -0.9257813,-0.1171875 -0.9257813,-0.48046875 z m 9.9492185,3.1875 c 0,-0.796875 -0.04687,-1.59375 -0.398437,-2.3320312 -0.457032,-0.9609375 -1.277344,-1.1132813 -1.6875,-1.1132813 -0.597657,0 -1.3359377,0.2578125 -1.7343752,1.1835938 -0.328125,0.6914062 -0.375,1.4648437 -0.375,2.2617187 0,0.75 0.046875,1.640625 0.4453125,2.40234376 0.4335937,0.80859375 1.1601557,1.0078125 1.6523437,1.0078125 0.539062,0 1.289062,-0.2109375 1.734375,-1.16015625 0.316406,-0.69140621 0.363281,-1.46484371 0.363281,-2.25000001 z m -2.097656,3.1875000125 c -0.386719,0 -0.984375,-0.2460937525 -1.1601562,-1.2070312125 C 9.517,-1.8048047 9.517,-2.7188672 9.517,-3.3048047 c 0,-0.6445312 0,-1.3007812 0.082031,-1.8398437 0.1875,-1.1835938 0.925781,-1.265625 1.183594,-1.265625 0.328125,0 0.984375,0.1757812 1.171875,1.1601562 0.09375,0.5625 0.09375,1.3125 0.09375,1.9453125 0,0.75 0,1.4179688 -0.105469,2.0625 -0.152344,0.93750001 -0.714844,1.2421875125 -1.160156,1.2421875125 z M 17.872469,-0.76183594 18.927156,-1.7930859 c 1.558594,-1.3710938 2.15625,-1.9101563 2.15625,-2.90625 0,-1.1367188 -0.902344,-1.9335938 -2.121094,-1.9335938 -1.125,0 -1.851562,0.9140625 -1.851562,1.8046875 0,0.5507813 0.492187,0.5507813 0.527344,0.5507813 0.164062,0 0.515625,-0.1171875 0.515625,-0.5273438 0,-0.2578125 -0.1875,-0.515625 -0.527344,-0.515625 -0.08203,0 -0.105469,0 -0.128906,0.011719 0.222656,-0.6445313 0.761718,-1.0195313 1.335937,-1.0195313 0.914063,0 1.335938,0.8085938 1.335938,1.6289063 0,0.796875 -0.492188,1.5820312 -1.042969,2.203125 l -1.910156,2.13281246 C 17.11075,-0.25792969 17.11075,-0.23449219 17.11075,-1.171875e-4 h 3.691406 L 21.083406,-1.7344922 h -0.257812 c -0.04687,0.3046875 -0.117188,0.73828126 -0.210938,0.89062501 -0.07031,0.0820313 -0.726562,0.0820313 -0.949219,0.0820313 z m 8.299804,0 1.054688,-1.03124996 c 1.558594,-1.3710938 2.15625,-1.9101563 2.15625,-2.90625 0,-1.1367188 -0.902344,-1.9335938 -2.121094,-1.9335938 -1.125,0 -1.851562,0.9140625 -1.851562,1.8046875 0,0.5507813 0.492187,0.5507813 0.527343,0.5507813 0.164063,0 0.515625,-0.1171875 0.515625,-0.5273438 0,-0.2578125 -0.1875,-0.515625 -0.527343,-0.515625 -0.08203,0 -0.105469,0 -0.128907,0.011719 0.222657,-0.6445313 0.761719,-1.0195313 1.335938,-1.0195313 0.914062,0 1.335937,0.8085938 1.335937,1.6289063 0,0.796875 -0.492187,1.5820312 -1.042968,2.203125 l -1.910157,2.13281246 c -0.105468,0.10546875 -0.105468,0.12890625 -0.105468,0.3632812525 h 3.691406 L 29.383211,-1.7344922 h -0.257813 c -0.04687,0.3046875 -0.117187,0.73828126 -0.210937,0.89062501 -0.07031,0.0820313 -0.726563,0.0820313 -0.949219,0.0820313 z m 9.963868,-5.61328126 c 0,-0.234375 0,-0.2578125 -0.234375,-0.2578125 -0.609375,0.6328125 -1.488282,0.6328125 -1.804688,0.6328125 v 0.3164063 c 0.199219,0 0.785156,0 1.300781,-0.2578125 v 5.15624996 c 0,0.3515625 -0.03516,0.48046875 -0.925781,0.48046875 H 34.155672 V -1.171875e-4 C 34.507234,-0.03527344 35.362703,-0.03527344 35.761141,-0.03527344 c 0.398437,0 1.265625,0 1.617187,0.0351562525 V -0.30480469 h -0.316406 c -0.902344,0 -0.925781,-0.1171875 -0.925781,-0.48046875 z m 9.960937,3.1875 c 0,-0.796875 -0.04687,-1.59375 -0.398437,-2.3320312 -0.457032,-0.9609375 -1.277344,-1.1132813 -1.6875,-1.1132813 -0.597657,0 -1.335938,0.2578125 -1.734375,1.1835938 -0.328125,0.6914062 -0.375,1.4648437 -0.375,2.2617187 0,0.75 0.04687,1.640625 0.445312,2.40234376 0.433594,0.80859375 1.160156,1.0078125 1.652344,1.0078125 0.539062,0 1.289062,-0.2109375 1.734375,-1.16015625 0.316406,-0.69140621 0.363281,-1.46484371 0.363281,-2.25000001 z m -2.097656,3.1875000125 c -0.386719,0 -0.984375,-0.2460937525 -1.160156,-1.2070312125 -0.105469,-0.5976563 -0.105469,-1.5117188 -0.105469,-2.0976563 0,-0.6445312 0,-1.3007812 0.08203,-1.8398437 0.1875,-1.1835938 0.925781,-1.265625 1.183594,-1.265625 0.328125,0 0.984375,0.1757812 1.171875,1.1601562 0.09375,0.5625 0.09375,1.3125 0.09375,1.9453125 0,0.75 0,1.4179688 -0.105469,2.0625 -0.152344,0.93750001 -0.714844,1.2421875125 -1.160155,1.2421875125 z m 0,0"
       style="fill:#000000;fill-opacity:1;fill-rule:nonzero;stroke:none"
       aria-label="102210"
       transform="matrix(1.3333333,0,0,1.3333333,4.3106667,12.34)" />
    <path
       id="path3"
       d="M -23.24648,-5.20273 H -1.98637"
       style="fill:none;stroke:#0000ff;stroke-width:0.79701;stroke-linecap:butt;stroke-linejoin:miter;stroke-miterlimit:10;stroke-dasharray:none;stroke-opacity:1"
       transform="matrix(1.3333333,0,0,-1.3333333,35.305333,8.06)" />
    <path
       id="path4"
       d="M 0.84848,-5.20273 H 23.52602"
       style="fill:none;stroke:#ff0000;stroke-width:0.79701;stroke-linecap:butt;stroke-linejoin:miter;stroke-miterlimit:10;stroke-dasharray:0.79701, 1.99255;stroke-dashoffset:0;stroke-opacity:1"
       transform="matrix(1.3333333,0,0,-1.3333333,35.305333,8.06)" />
  </g>
</svg>
