<?xml version="1.0" encoding="UTF-8" standalone="no"?>
<!-- Created with Inkscape (http://www.inkscape.org/) -->

<svg
   version="1.1"
   id="svg1"
   width="147.56799"
   height="19.308001"
   viewBox="0 0 147.56799 19.308001"
   xmlns="http://www.w3.org/2000/svg"
   xmlns:svg="http://www.w3.org/2000/svg">
  <defs
     id="defs1" />
  <g
     id="g1">
    <path
       id="path1"
       d="M 0,0 H 110.676 V 14.481 H 0 Z"
       style="fill:#ffffff;fill-opacity:1;fill-rule:nonzero;stroke:none"
       transform="matrix(1.3333333,0,0,-1.3333333,0,19.308)" />
    <path
       id="path2"
       d="M 2.8959063,-3.5040234 C 3.7045,-3.7735547 4.2904375,-4.4766797 4.2904375,-5.2618359 c 0,-0.8203125 -0.8789062,-1.3710938 -1.8398437,-1.3710938 -1.0078125,0 -1.75781255,0.5976563 -1.75781255,1.3476563 0,0.3398437 0.2109375,0.5273437 0.50390625,0.5273437 0.3046875,0 0.5039063,-0.2226562 0.5039063,-0.515625 0,-0.4921875 -0.46875,-0.4921875 -0.609375,-0.4921875 0.3046875,-0.4921875 0.9609375,-0.6210937 1.3242187,-0.6210937 0.4101563,0 0.9492188,0.2226562 0.9492188,1.1132812 0,0.1289063 -0.011719,0.703125 -0.2695313,1.1367188 -0.3046875,0.4804687 -0.6445312,0.515625 -0.890625,0.515625 -0.082031,0.011719 -0.3164062,0.035156 -0.3867187,0.035156 -0.082031,0.011719 -0.1523438,0.023437 -0.1523438,0.1171875 0,0.1171875 0.070312,0.1171875 0.234375,0.1171875 H 2.345125 c 0.8085938,0 1.1835938,0.6679688 1.1835938,1.6523438 0,1.34765621 -0.6914063,1.64062496 -1.125,1.64062496 -0.4335938,0 -1.171875,-0.17578125 -1.52343755,-0.76171875 0.35156255,0.0585938 0.65625005,-0.1640625 0.65625005,-0.53906251 0,-0.3632812 -0.2695313,-0.5625 -0.56250005,-0.5625 -0.234375,0 -0.55078125,0.140625 -0.55078125,0.5742188 0,0.91406246 0.9257813,1.57031246 2.0039063,1.57031246 1.21875,0 2.1210937,-0.9140625 2.1210937,-1.92187496 0,-0.8203125 -0.6210937,-1.59375 -1.6523437,-1.8046873 z m 8.2968747,0 c 0.808594,-0.2695313 1.394532,-0.9726563 1.394532,-1.7578125 0,-0.8203125 -0.878907,-1.3710938 -1.839844,-1.3710938 -1.0078127,0 -1.7578127,0.5976563 -1.7578127,1.3476563 0,0.3398437 0.2109375,0.5273437 0.5039062,0.5273437 0.3046875,0 0.5039063,-0.2226562 0.5039063,-0.515625 0,-0.4921875 -0.46875,-0.4921875 -0.609375,-0.4921875 0.3046875,-0.4921875 0.9609372,-0.6210937 1.3242192,-0.6210937 0.410156,0 0.949218,0.2226562 0.949218,1.1132812 0,0.1289063 -0.01172,0.703125 -0.269531,1.1367188 -0.304687,0.4804687 -0.644531,0.515625 -0.890625,0.515625 -0.08203,0.011719 -0.316406,0.035156 -0.386719,0.035156 -0.08203,0.011719 -0.1523435,0.023437 -0.1523435,0.1171875 0,0.1171875 0.070312,0.1171875 0.2343755,0.1171875 H 10.642 c 0.808594,0 1.183594,0.6679688 1.183594,1.6523438 0,1.34765621 -0.691406,1.64062496 -1.125,1.64062496 -0.433594,0 -1.1718752,-0.17578125 -1.5234377,-0.76171875 0.3515625,0.0585938 0.65625,-0.1640625 0.65625,-0.53906251 0,-0.3632812 -0.2695313,-0.5625 -0.5625,-0.5625 -0.234375,0 -0.5507813,0.140625 -0.5507813,0.5742188 0,0.91406246 0.9257813,1.57031246 2.003906,1.57031246 1.21875,0 2.121094,-0.9140625 2.121094,-1.92187496 0,-0.8203125 -0.621094,-1.59375 -1.652344,-1.8046873 z m 8.308594,0 c 0.808594,-0.2695313 1.394531,-0.9726563 1.394531,-1.7578125 0,-0.8203125 -0.878906,-1.3710938 -1.839843,-1.3710938 -1.007813,0 -1.757813,0.5976563 -1.757813,1.3476563 0,0.3398437 0.210938,0.5273437 0.503906,0.5273437 0.304688,0 0.503907,-0.2226562 0.503907,-0.515625 0,-0.4921875 -0.46875,-0.4921875 -0.609375,-0.4921875 0.304687,-0.4921875 0.960937,-0.6210937 1.324218,-0.6210937 0.410157,0 0.949219,0.2226562 0.949219,1.1132812 0,0.1289063 -0.01172,0.703125 -0.269531,1.1367188 -0.304688,0.4804687 -0.644531,0.515625 -0.890625,0.515625 -0.08203,0.011719 -0.316406,0.035156 -0.386719,0.035156 -0.08203,0.011719 -0.152344,0.023437 -0.152344,0.1171875 0,0.1171875 0.07031,0.1171875 0.234375,0.1171875 h 0.445313 c 0.808594,0 1.183594,0.6679688 1.183594,1.6523438 0,1.34765621 -0.691407,1.64062496 -1.125,1.64062496 -0.433594,0 -1.171875,-0.17578125 -1.523438,-0.76171875 0.351563,0.0585938 0.65625,-0.1640625 0.65625,-0.53906251 0,-0.3632812 -0.269531,-0.5625 -0.5625,-0.5625 -0.234375,0 -0.550781,0.140625 -0.550781,0.5742188 0,0.91406246 0.925781,1.57031246 2.003906,1.57031246 1.21875,0 2.121094,-0.9140625 2.121094,-1.92187496 0,-0.8203125 -0.621094,-1.59375 -1.652344,-1.8046873 z m 8.334961,-2.8710938 c 0,-0.234375 0,-0.2578125 -0.234375,-0.2578125 -0.609375,0.6328125 -1.488281,0.6328125 -1.804688,0.6328125 v 0.3164063 c 0.199219,0 0.785157,0 1.300782,-0.2578125 v 5.15624996 c 0,0.3515625 -0.03516,0.48046875 -0.925782,0.48046875 H 25.855867 V -1.171875e-4 C 26.20743,-0.03527344 27.062898,-0.03527344 27.461336,-0.03527344 c 0.398437,0 1.265625,0 1.617187,0.0351562525 V -0.30480469 h -0.316406 c -0.902344,0 -0.925781,-0.1171875 -0.925781,-0.48046875 z m 6.635742,5.61328126 1.054688,-1.03124996 c 1.558593,-1.3710938 2.15625,-1.9101563 2.15625,-2.90625 0,-1.1367188 -0.902344,-1.9335938 -2.121094,-1.9335938 -1.125,0 -1.851563,0.9140625 -1.851563,1.8046875 0,0.5507813 0.492188,0.5507813 0.527344,0.5507813 0.164063,0 0.515625,-0.1171875 0.515625,-0.5273438 0,-0.2578125 -0.1875,-0.515625 -0.527344,-0.515625 -0.08203,0 -0.105468,0 -0.128906,0.011719 0.222656,-0.6445313 0.761719,-1.0195313 1.335938,-1.0195313 0.914062,0 1.335937,0.8085938 1.335937,1.6289063 0,0.796875 -0.492187,1.5820312 -1.042969,2.203125 l -1.910156,2.13281246 c -0.105469,0.10546875 -0.105469,0.12890625 -0.105469,0.3632812525 h 3.691407 L 37.683016,-1.7344922 h -0.257813 c -0.04687,0.3046875 -0.117187,0.73828126 -0.210937,0.89062501 -0.07031,0.0820313 -0.726563,0.0820313 -0.949219,0.0820313 z m 11.625,-2.42578126 c 0,-0.796875 -0.04687,-1.59375 -0.398437,-2.3320312 -0.457032,-0.9609375 -1.277344,-1.1132813 -1.6875,-1.1132813 -0.597657,0 -1.335938,0.2578125 -1.734375,1.1835938 -0.328125,0.6914062 -0.375,1.4648437 -0.375,2.2617187 0,0.75 0.04687,1.640625 0.445312,2.40234376 0.433594,0.80859375 1.160156,1.0078125 1.652344,1.0078125 0.539062,0 1.289062,-0.2109375 1.734375,-1.16015625 0.316406,-0.69140621 0.363281,-1.46484371 0.363281,-2.25000001 z m -2.097656,3.1875000125 c -0.386719,0 -0.984375,-0.2460937525 -1.160156,-1.2070312125 -0.105469,-0.5976563 -0.105469,-1.5117188 -0.105469,-2.0976563 0,-0.6445312 0,-1.3007812 0.08203,-1.8398437 0.1875,-1.1835938 0.925781,-1.265625 1.183594,-1.265625 0.328125,0 0.984375,0.1757812 1.171875,1.1601562 0.09375,0.5625 0.09375,1.3125 0.09375,1.9453125 0,0.75 0,1.4179688 -0.105469,2.0625 -0.152344,0.93750001 -0.714844,1.2421875125 -1.160155,1.2421875125 z M 52.706453,-3.5040234 c 0.808594,-0.2695313 1.394531,-0.9726563 1.394531,-1.7578125 0,-0.8203125 -0.878906,-1.3710938 -1.839843,-1.3710938 -1.007813,0 -1.757813,0.5976563 -1.757813,1.3476563 0,0.3398437 0.210938,0.5273437 0.503906,0.5273437 0.304688,0 0.503907,-0.2226562 0.503907,-0.515625 0,-0.4921875 -0.46875,-0.4921875 -0.609375,-0.4921875 0.304687,-0.4921875 0.960937,-0.6210937 1.324218,-0.6210937 0.410157,0 0.949219,0.2226562 0.949219,1.1132812 0,0.1289063 -0.01172,0.703125 -0.269531,1.1367188 -0.304688,0.4804687 -0.644531,0.515625 -0.890625,0.515625 -0.08203,0.011719 -0.316406,0.035156 -0.386719,0.035156 -0.08203,0.011719 -0.152344,0.023437 -0.152344,0.1171875 0,0.1171875 0.07031,0.1171875 0.234375,0.1171875 h 0.445313 c 0.808594,0 1.183594,0.6679688 1.183594,1.6523438 0,1.34765621 -0.691407,1.64062496 -1.125,1.64062496 -0.433594,0 -1.171875,-0.17578125 -1.523438,-0.76171875 0.351563,0.0585938 0.65625,-0.1640625 0.65625,-0.53906251 0,-0.3632812 -0.269531,-0.5625 -0.5625,-0.5625 -0.234375,0 -0.550781,0.140625 -0.550781,0.5742188 0,0.91406246 0.925781,1.57031246 2.003906,1.57031246 1.21875,0 2.121094,-0.9140625 2.121094,-1.92187496 0,-0.8203125 -0.621094,-1.59375 -1.652344,-1.8046873 z m 8.299805,0 c 0.808594,-0.2695313 1.394531,-0.9726563 1.394531,-1.7578125 0,-0.8203125 -0.878906,-1.3710938 -1.839844,-1.3710938 -1.007812,0 -1.757812,0.5976563 -1.757812,1.3476563 0,0.3398437 0.210937,0.5273437 0.503906,0.5273437 0.304688,0 0.503906,-0.2226562 0.503906,-0.515625 0,-0.4921875 -0.46875,-0.4921875 -0.609375,-0.4921875 0.304688,-0.4921875 0.960938,-0.6210937 1.324219,-0.6210937 0.410156,0 0.949219,0.2226562 0.949219,1.1132812 0,0.1289063 -0.01172,0.703125 -0.269531,1.1367188 -0.304688,0.4804687 -0.644532,0.515625 -0.890625,0.515625 -0.08203,0.011719 -0.316407,0.035156 -0.386719,0.035156 -0.08203,0.011719 -0.152344,0.023437 -0.152344,0.1171875 0,0.1171875 0.07031,0.1171875 0.234375,0.1171875 h 0.445313 c 0.808593,0 1.183593,0.6679688 1.183593,1.6523438 0,1.34765621 -0.691406,1.64062496 -1.125,1.64062496 -0.433593,0 -1.171875,-0.17578125 -1.523437,-0.76171875 0.351562,0.0585938 0.65625,-0.1640625 0.65625,-0.53906251 0,-0.3632812 -0.269531,-0.5625 -0.5625,-0.5625 -0.234375,0 -0.550781,0.140625 -0.550781,0.5742188 0,0.91406246 0.925781,1.57031246 2.003906,1.57031246 1.21875,0 2.121094,-0.9140625 2.121094,-1.92187496 0,-0.8203125 -0.621094,-1.59375 -1.652344,-1.8046873 z m 6.679687,2.74218746 1.054688,-1.03124996 c 1.558594,-1.3710938 2.15625,-1.9101563 2.15625,-2.90625 0,-1.1367188 -0.902344,-1.9335938 -2.121094,-1.9335938 -1.125,0 -1.851562,0.9140625 -1.851562,1.8046875 0,0.5507813 0.492187,0.5507813 0.527343,0.5507813 0.164063,0 0.515625,-0.1171875 0.515625,-0.5273438 0,-0.2578125 -0.1875,-0.515625 -0.527343,-0.515625 -0.08203,0 -0.105469,0 -0.128907,0.011719 0.222657,-0.6445313 0.761719,-1.0195313 1.335938,-1.0195313 0.914062,0 1.335937,0.8085938 1.335937,1.6289063 0,0.796875 -0.492187,1.5820312 -1.042968,2.203125 l -1.910157,2.13281246 c -0.105468,0.10546875 -0.105468,0.12890625 -0.105468,0.3632812525 h 3.691406 L 70.896883,-1.7344922 H 70.63907 c -0.04687,0.3046875 -0.117187,0.73828126 -0.210937,0.89062501 -0.07031,0.0820313 -0.726563,0.0820313 -0.949219,0.0820313 z m 9.963867,-5.61328126 c 0,-0.234375 0,-0.2578125 -0.234375,-0.2578125 -0.609375,0.6328125 -1.488281,0.6328125 -1.804687,0.6328125 v 0.3164063 c 0.199219,0 0.785156,0 1.300781,-0.2578125 v 5.15624996 c 0,0.3515625 -0.03516,0.48046875 -0.925781,0.48046875 H 75.669344 V -1.171875e-4 C 76.020906,-0.03527344 76.876375,-0.03527344 77.274812,-0.03527344 c 0.398438,0 1.265625,0 1.617188,0.0351562525 V -0.30480469 h -0.316406 c -0.902344,0 -0.925782,-0.1171875 -0.925782,-0.48046875 z m 8.296875,4.734375 v 0.86718751 c 0,0.3515625 -0.02344,0.46875 -0.761718,0.46875 h -0.210938 v 0.3046875025 c 0.410156,-0.0351562525 0.9375,-0.0351562525 1.347656,-0.0351562525 0.421875,0 0.949219,0 1.359375,0.0351562525 V -0.30480469 h -0.210937 c -0.738281,0 -0.761719,-0.1171875 -0.761719,-0.46875 V -1.6407422 H 87.7045 v -0.3164062 h -0.996094 v -4.5234375 c 0,-0.1992188 0,-0.2578125 -0.152344,-0.2578125 -0.09375,0 -0.117187,0 -0.199218,0.1171875 l -3.058594,4.6640625 v 0.3164062 z m 0.05859,-0.3164062 H 83.5795 l 2.425781,-3.7148438 z m 8.25293,-4.4179688 c 0,-0.234375 0,-0.2578125 -0.234375,-0.2578125 -0.609375,0.6328125 -1.488281,0.6328125 -1.804688,0.6328125 v 0.3164063 c 0.199219,0 0.785157,0 1.300782,-0.2578125 v 5.15624996 c 0,0.3515625 -0.03516,0.48046875 -0.925782,0.48046875 H 92.277742 V -1.171875e-4 C 92.629305,-0.03527344 93.484773,-0.03527344 93.883211,-0.03527344 c 0.398437,0 1.265625,0 1.617187,0.0351562525 V -0.30480469 h -0.316406 c -0.902344,0 -0.925781,-0.1171875 -0.925781,-0.48046875 z m 9.949223,3.1875 c 0,-0.796875 -0.0469,-1.59375 -0.39844,-2.3320312 -0.45703,-0.9609375 -1.27734,-1.1132813 -1.6875,-1.1132813 -0.59765,0 -1.33594,0.2578125 -1.73437,1.1835938 -0.32813,0.6914062 -0.375,1.4648437 -0.375,2.2617187 0,0.75 0.0469,1.640625 0.44531,2.40234376 0.43359,0.80859375 1.16016,1.0078125 1.65234,1.0078125 0.53907,0 1.28907,-0.2109375 1.73438,-1.16015625 0.3164,-0.69140621 0.36328,-1.46484371 0.36328,-2.25000001 z m -2.09766,3.1875000125 c -0.38672,0 -0.98437,-0.2460937525 -1.16015,-1.2070312125 -0.10547,-0.5976563 -0.10547,-1.5117188 -0.10547,-2.0976563 0,-0.6445312 0,-1.3007812 0.082,-1.8398437 0.1875,-1.1835938 0.92578,-1.265625 1.18359,-1.265625 0.32813,0 0.98438,0.1757812 1.17188,1.1601562 0.0937,0.5625 0.0937,1.3125 0.0937,1.9453125 0,0.75 0,1.4179688 -0.10547,2.0625 -0.15234,0.93750001 -0.71484,1.2421875125 -1.16016,1.2421875125 z m 0,0"
       style="fill:#000000;fill-opacity:1;fill-rule:nonzero;stroke:none"
       aria-label="3331203321410"
       transform="matrix(1.3333333,0,0,1.3333333,4.3106667,12.34)" />
    <path
       id="path3"
       d="M -45.2179,-5.20273 H 28.48398"
       style="fill:none;stroke:#0000ff;stroke-width:0.79701;stroke-linecap:butt;stroke-linejoin:miter;stroke-miterlimit:10;stroke-dasharray:none;stroke-opacity:1"
       transform="matrix(1.3333333,0,0,-1.3333333,74.049333,8.06)" />
  </g>
</svg>
